<svg xmlns="http://www.w3.org/2000/svg" xmlns:xlink="http://www.w3.org/1999/xlink" xmlns:svgjs="http://svgjs.com/svgjs" width="682.667" height="682.667"><svg version="1.0" xmlns="http://www.w3.org/2000/svg" width="682.667" height="682.667" viewBox="0 0 512 512"><path d="M0 256v256h512V0H0v256zm246.3-38.3c15.7 4.6 25.7 18.4 25.7 35.7v6.1l2.2-3.5c10.1-16.8 20.4-28.9 28.4-33.6 7.9-4.6 15.3-6.6 25.4-6.7 21.8-.2 35.6 9.4 42.2 29.2 2.1 6.3 2.2 8.8 2.9 56.6.4 29.9 1.2 53.7 1.9 59.3.7 5.1 1 9.5.7 9.8-1.5 1.6-17.2 4.6-23.8 4.7-9.9.1-15.3-2.7-18.7-9.4-2.3-4.6-2.3-5-2-37.5.6-63.9.6-63.3-2-68.7-3.5-7-9.3-10.1-17.3-9.4-3.7.3-7.5 1.4-10.3 3.1-10.3 6-20 21-24.7 38.1-2.1 7.7-2.1 9.2-1.5 37.5.3 16.2.9 32.7 1.2 36.6l.6 7.1-4.8 1.2c-6.7 1.7-18.2 2.5-23.8 1.7-6.4-1-11.1-5.3-13.1-11.9-1.9-6.5-1.9-14.3.1-39.8 1.3-16.7 1.4-24.5.7-40.2-.9-17.5-1.3-20-3.4-24.3-3.6-7.2-6.6-8.9-15.3-8.9-6.3 0-7.9.4-12.2 3-6.5 4.1-14.2 13.8-20.8 26.5l-5.5 10.5.6 41.1.6 41.1-5.8 1.1c-3.2.7-9.7 1.2-14.4 1.2-11.2 0-16-2.2-19.3-8.8-2.1-4.4-2.3-5.9-2.2-21.7 0-12.8.6-20.2 2.2-29.9 2.1-11.9 2.2-14.1 1.2-30.5-1.2-20.5-2.5-34.1-4.6-50-.9-6.3-1.2-11.7-.7-12.2 1.8-1.8 16.8-4.9 23.5-4.9 13.5 0 15.7 3.5 16.6 26.2l.5 14.7 5.6-9.1c7.4-12 18.3-23.5 26.1-27.7 11.3-6 24.3-7.2 37.3-3.4z"/></svg><style>@media (prefers-color-scheme:light){:root{filter:none}}</style></svg>
